<?xml version="1.0" encoding="UTF-8" standalone="no"?>
<svg
   xmlns:dc="http://purl.org/dc/elements/1.1/"
   xmlns:cc="http://creativecommons.org/ns#"
   xmlns:rdf="http://www.w3.org/1999/02/22-rdf-syntax-ns#"
   xmlns:svg="http://www.w3.org/2000/svg"
   xmlns="http://www.w3.org/2000/svg"
   xmlns:sodipodi="http://sodipodi.sourceforge.net/DTD/sodipodi-0.dtd"
   xmlns:inkscape="http://www.inkscape.org/namespaces/inkscape"
   version="1.0"
   width="150pt"
   height="150pt"
   viewBox="0 0 150 150"
   preserveAspectRatio="xMidYMid meet"
   id="svg2"
   inkscape:version="0.91 r13725"
   sodipodi:docname="new_colony_logo.svg">
  <defs
     id="defs12" />
  <sodipodi:namedview
     pagecolor="#ff0000"
     bordercolor="#666666"
     borderopacity="1"
     objecttolerance="10"
     gridtolerance="10"
     guidetolerance="10"
     inkscape:pageopacity="0"
     inkscape:pageshadow="2"
     inkscape:window-width="1241"
     inkscape:window-height="667"
     id="namedview10"
     showgrid="false"
     inkscape:zoom="1.3111111"
     inkscape:cx="117.08514"
     inkscape:cy="89.999999"
     inkscape:window-x="261"
     inkscape:window-y="153"
     inkscape:window-maximized="0"
     inkscape:current-layer="svg2" />
  <circle
     style="opacity:1;fill:#ffffff;fill-opacity:1;stroke:none;stroke-width:0;stroke-linecap:square;stroke-linejoin:bevel;stroke-miterlimit:0;stroke-dasharray:none;stroke-opacity:1"
     id="circle"
     cx="75"
     cy="75"
     r="72" />
  <g
     transform="matrix(0.1,0,0,-0.1,3.6948867,146.50954)"
     id="colony_wings"
     style="fill:#000000;stroke:none">
    <path
       d="m 578,1385 c -78,-16 -153,-47 -186,-78 -33,-31 -97,-125 -127,-189 l -25,-53 4,58 c 3,34 13,73 26,95 21,37 21,36 -30,-13 -58,-57 -99,-112 -135,-183 l -25,-50 20,-73 c 10,-41 22,-85 26,-99 4,-18 -4,-11 -30,24 C 76,851 60,878 59,884 57,919 39,835 34,766 11,467 193,181 476,74 c 84,-31 105,-32 72,-1 -33,31 -54,65 -63,102 -6,27 -3,25 25,-17 34,-52 82,-91 138,-115 28,-12 56,-14 119,-9 44,3 91,10 103,14 21,8 19,11 -29,47 -28,22 -51,40 -51,41 0,1 31,-8 68,-21 81,-27 109,-31 142,-21 44,15 153,92 203,144 l 49,50 -53,-14 c -109,-28 -108,-15 3,42 102,53 108,58 132,107 49,104 61,163 60,297 -1,79 -7,141 -16,170 l -14,45 -7,-72 C 1339,674 1220,500 1052,418 991,388 978,385 890,385 c -81,1 -103,5 -151,27 -32,14 -67,40 -82,59 -87,116 -34,289 89,289 33,0 46,-5 58,-22 l 15,-21 11,27 c 5,15 10,33 10,40 0,26 -42,66 -81,77 -21,7 -39,18 -39,25 0,22 -38,35 -114,41 -83,6 -104,-2 -191,-72 -83,-68 -89,-61 -54,65 44,161 139,282 269,344 99,48 163,59 297,54 62,-2 110,-1 106,3 -5,3 -37,18 -73,32 -118,47 -252,58 -382,32 z m 92,-525 c 0,-5 -13,-10 -29,-10 -17,0 -33,5 -36,10 -4,6 8,10 29,10 20,0 36,-4 36,-10 z"
       id="path8"
       inkscape:connector-curvature="0" />
  </g>
</svg>
